<svg xmlns="http://www.w3.org/2000/svg" viewBox="0 0 300 640" width="100%" height="100%">
  <defs>
    <radialGradient id="lensGrad5av2" cx="50%" cy="50%" r="50%">
      <stop offset="0%" stop-color="#3b3b3b"/>
      <stop offset="60%" stop-color="#111111"/>
      <stop offset="100%" stop-color="#000000"/>
    </radialGradient>
  </defs>

  <rect x="10" y="10" width="280" height="620" rx="38" ry="38" fill="#353b36" stroke="#2b302c" stroke-width="2"/>

  <rect x="30" y="30" width="90" height="90" rx="20" ry="20" fill="#101010" />
  <circle cx="54" cy="75" r="13" fill="url(#lensGrad5av2)" stroke="#262626" stroke-width="1.5"/>
  <circle cx="96" cy="75" r="13" fill="url(#lensGrad5av2)" stroke="#262626" stroke-width="1.5"/>
  <circle cx="75" cy="48" r="5.5" fill="#fefecb"/>
  <circle cx="75" cy="100" r="2.5" fill="#2a2a2a"/>

  <circle cx="150" cy="180" r="21" fill="#2f3530" stroke="#252a26" stroke-width="1.5"/>

  <text x="150" y="390" font-family="Arial, sans-serif" font-size="80" font-weight="bold" fill="#a0a6a2" text-anchor="middle" opacity="0.8">5a</text>

  <g transform="translate(142, 550) scale(0.8)">
      <path d="M20,0 h-12 v-6 h18 c0,10 -8,18 -18,18 c-10,0 -18,-8 -18,-18 c0,-10 8,-18 18,-18 c4.5,0 8.5,1.6 11.6,4.4 l-4.6,4.6 c-1.8,-1.5 -4.2,-2.6 -7,-2.6 c-6,0 -11,5 -11,11 c0,6 5,11 11,11 c4.8,0 8.8,-3 10.3,-7 z" fill="#8c918d"/>
  </g>

  <rect x="290" y="160" width="4" height="40" rx="1" fill="#585e59" />
</svg>
